PathFileType	4	(X/Y/Z)	C:\Users\86182\Documents\cortex\Trimmed_M1_L4.trc
DataRate	CameraRate	NumFrames	NumMarkers	Units	OrigDataRate	OrigDataStartFrame	OrigNumFrames
100.00	100.00	       56	2	mm	100.00	761	       951
Frame#	Time	gripper			box			
		X1	Y1	Z1	X2	Y2	Z2	

761	7.600	197.93991	194.36101	293.15063	200.40701	193.12056	157.99612	
762	7.610	197.93991	194.36101	293.15063	200.42383	193.13208	158.00568	
763	7.620	197.95436	194.38304	293.15295	200.41365	193.12015	158.00970	
764	7.630	197.92900	194.36589	293.15076	200.41872	193.12608	158.00769	
765	7.640	197.95229	194.38464	293.15854	200.40604	193.11124	158.01271	
766	7.650	197.90067	194.37497	293.15076	200.40958	193.11674	158.00862	
767	7.660	197.93895	194.37924	293.15219	200.42892	193.13805	158.00366	
768	7.670	197.92265	194.36513	293.15051	200.42892	193.13805	158.00366	
769	7.680	197.93791	194.39758	293.15375	200.40604	193.11124	158.01271	
770	7.690	197.92709	194.38696	293.15033	200.42892	193.13805	158.00366	
771	7.700	197.91443	194.37242	293.15091	200.41365	193.12015	158.00970	
772	7.710	197.91075	194.37407	293.15094	200.41365	193.12015	158.00970	
773	7.720	197.96161	194.37979	293.15286	200.42638	193.13507	158.00465	
774	7.730	197.92799	194.38417	293.15231	200.43915	193.15004	157.99960	
775	7.740	197.93990	194.37532	293.15186	200.41365	193.12015	158.00970	
776	7.750	197.93806	194.35466	293.15002	200.40190	193.11456	157.99815	
777	7.760	197.90164	194.35657	293.14917	200.42383	193.13208	158.00568	
778	7.770	197.88701	194.36314	293.14935	200.41309	193.12907	157.99095	
779	7.780	197.92719	194.35953	293.15015	200.40604	193.11124	158.01271	
780	7.790	197.95892	194.37747	293.15259	200.44432	193.15610	157.99754	
781	7.800	197.91806	194.37079	293.15085	200.43915	193.15004	157.99960	
782	7.810	197.93082	194.35791	293.15012	200.40604	193.11124	158.01271	
783	7.820	197.92172	194.36916	293.15082	200.40955	193.12355	157.99510	
784	7.830	197.90530	194.35493	293.14914	200.42892	193.13805	158.00366	
785	7.840	197.90898	194.35329	293.14911	200.43146	193.14104	158.00264	
786	7.850	197.94531	194.38000	293.15240	200.42484	193.13464	158.00256	
787	7.860	197.89522	194.37025	293.15021	200.41872	193.12608	158.00769	
788	7.870	197.93326	194.40318	293.15411	200.42638	193.13507	158.00465	
789	7.880	197.96344	194.38615	293.15347	200.43202	193.14580	157.99429	
790	7.890	197.95798	194.38142	293.15292	200.42892	193.13805	158.00366	
791	7.900	197.97151	194.37892	293.15308	200.42892	193.13805	158.00366	
792	7.910	197.93718	194.37297	293.15158	200.40858	193.11423	158.01170	
793	7.920	197.90898	194.35329	293.14911	200.41154	193.12865	157.98885	
794	7.930	197.92624	194.34917	293.14923	200.42230	193.13165	158.00357	
795	7.940	197.93353	194.36026	293.15039	200.42383	193.13208	158.00568	
796	7.950	197.92078	194.37314	293.15115	200.43146	193.14104	158.00264	
797	7.960	197.96155	194.39407	293.15408	200.41466	193.12271	158.00661	
798	7.970	197.93864	194.40785	293.15466	200.41872	193.12608	158.00769	
799	7.980	197.91075	194.37407	293.15094	200.42638	193.13507	158.00465	
800	7.990	197.94247	194.39192	293.15338	200.38602	193.10556	157.98546	
801	8.000	197.92078	194.37314	293.15115	200.42487	193.14153	157.98898	
802	8.010	197.91986	194.34842	293.14899	200.39828	193.11583	157.98872	
803	8.020	197.93895	194.37924	293.15219	200.42125	193.12907	158.00668	
804	8.030	197.91808	194.35643	293.14963	200.43404	193.14404	158.00162	
805	8.040	197.92899	194.35155	293.14951	200.42383	193.13208	158.00568	
806	8.050	197.90613	194.37970	293.15131	200.40703	193.11377	158.00963	
807	8.060	197.96066	194.36952	293.15195	200.41365	193.12015	158.00970	
808	8.070	197.90985	194.36368	293.15002	200.41872	193.12608	158.00769	
809	8.080	197.93709	194.38725	293.15280	200.40854	193.12099	157.99821	
810	8.090	197.94981	194.38864	293.15329	200.43146	193.14104	158.00264	
811	8.100	197.93718	194.37297	293.15158	200.41516	193.12738	157.99831	
812	8.110	197.95622	194.37512	293.15228	200.41110	193.11717	158.01070	
813	8.120	197.92540	194.36751	293.15079	200.43202	193.14580	157.99429	
814	8.130	197.91525	194.38280	293.15186	200.42383	193.13208	158.00568	
815	8.140	197.92513	194.39615	293.15326	200.40604	193.11124	158.01271	
816	8.150	197.92896	194.38022	293.15198	200.40550	193.11333	158.00755	
